<svg xmlns="http://www.w3.org/2000/svg" viewBox="0 0 512 512" id='svg-character'><defs><linearGradient id="delapouite-character-gradient-1" x1="0" x2="0" y1="0" y2="1"><stop offset="0%" stopColor="#edf3ee" stopOpacity="1"></stop><stop offset="100%" stopColor="#d6e1f0" stopOpacity="1"></stop></linearGradient><linearGradient x1="0" x2="0" y1="0" y2="1" id="delapouite-character-gradient-2"><stop offset="0%" stopColor="#edf3ee" stopOpacity="1"></stop><stop offset="100%" stopColor="#b8c7e8" stopOpacity="1"></stop></linearGradient><linearGradient id="delapouite-character-gradient-3"><stop offset="0%" stopColor="#edf3ee" stopOpacity="1"></stop><stop offset="100%" stopColor="#83b6f0" stopOpacity="1"></stop></linearGradient><linearGradient x1="0" x2="1" y1="1" y2="0" id="delapouite-character-gradient-11"><stop offset="0%" stopColor="#edf3ee" stopOpacity="1"></stop><stop offset="100%" stopColor="#ba9f0b" stopOpacity="1"></stop></linearGradient><linearGradient x1="0" x2="0" y1="0" y2="1" id="delapouite-character-gradient-12"><stop offset="0%" stopColor="#edf3ee" stopOpacity="1"></stop><stop offset="100%" stopColor="#cecece" stopOpacity="1"></stop></linearGradient><linearGradient id="delapouite-character-gradient-13"><stop offset="0%" stopColor="#edf3ee" stopOpacity="1"></stop><stop offset="100%" stopColor="#ba9f0b" stopOpacity="1"></stop></linearGradient><linearGradient id="delapouite-character-gradient-14"><stop offset="0%" stopColor="#edf3ee" stopOpacity="1"></stop><stop offset="100%" stopColor="#ba9f0b" stopOpacity="1"></stop></linearGradient></defs><path d="M0 0h512v512H0z" fill="#195f9f" fillOpacity="1"></path><g transform="translate(0,0)"><path d="M255 45.4c-24.5 0-47 11.8-63.9 33.4-16.9 21.5-27.1 52.6-27.1 86.5 0 36 12.1 67.5 31 89.5l13.5 15-19.6 4.6c-52.3 11.9-77.4 36.9-91.75 75.2-13.7 35.7-15.6 84.8-16.1 143.3H431c-.2-58.7-.5-109.3-13-145.5-13.4-39.4-37.9-64.3-94-75.4l-19.9-3.7 12.9-15.7c17.7-21.9 28.8-52.6 28.8-87.5 0-33.9-10.3-64.9-27.2-86.3-16.8-21.7-39.3-33.6-63.6-33.4z" fill="url(#delapouite-character-gradient-1)"></path></g></svg>