<svg xmlns="http://www.w3.org/2000/svg" viewBox="0 0 512 512" id='svg-unlocking'><defs><linearGradient id="lorc-unlocking-gradient-1"><stop offset="0%" stopColor="#edf3ee" stopOpacity="1"></stop><stop offset="100%" stopColor="#f8fafd" stopOpacity="1"></stop></linearGradient><linearGradient id="lorc-unlocking-gradient-2"><stop offset="0%" stopColor="#edf3ee" stopOpacity="1"></stop><stop offset="100%" stopColor="#bdd2bf" stopOpacity="1"></stop></linearGradient><linearGradient id="lorc-unlocking-gradient-3"><stop offset="0%" stopColor="#edf3ee" stopOpacity="1"></stop><stop offset="100%" stopColor="#83b6f0" stopOpacity="1"></stop></linearGradient><linearGradient x1="0" x2="1" y1="1" y2="0" id="lorc-unlocking-gradient-11"><stop offset="0%" stopColor="#edf3ee" stopOpacity="1"></stop><stop offset="100%" stopColor="#ba9f0b" stopOpacity="1"></stop></linearGradient><linearGradient x1="0" x2="0" y1="0" y2="1" id="lorc-unlocking-gradient-12"><stop offset="0%" stopColor="#edf3ee" stopOpacity="1"></stop><stop offset="100%" stopColor="#cecece" stopOpacity="1"></stop></linearGradient><linearGradient id="lorc-unlocking-gradient-13"><stop offset="0%" stopColor="#edf3ee" stopOpacity="1"></stop><stop offset="100%" stopColor="#ba9f0b" stopOpacity="1"></stop></linearGradient><linearGradient id="lorc-unlocking-gradient-14"><stop offset="0%" stopColor="#edf3ee" stopOpacity="1"></stop><stop offset="100%" stopColor="#ba9f0b" stopOpacity="1"></stop></linearGradient></defs><path d="M0 0h512v512H0z" fill="#195f9f" fillOpacity="1"></path><g transform="translate(0,0)"><g><path d="M78.53 157.188C54.687 157.188 34.6 178.552 28.25 207.781C24.034 213.321 21.5 220.216 21.5 227.657C21.5 235.163 24.06 242.124 28.344 247.687C34.819 276.65 54.829 297.751 78.531 297.751C102.824 297.751 123.251 275.578 129.188 245.501L234.97 245.501L234.97 311.095L254.28 311.095L254.28 266.875L272.97 266.875L272.97 311.095L293.062 311.095L293.062 286L311.75 286L311.75 311.094L326.875 311.094L326.875 245.5L344.845 245.5L344.845 212.03L129.655 212.03C124.407 180.648 103.515 157.187 78.531 157.187Z" fill="url(#lorc-unlocking-gradient-2)"></path><path d="M424.44 169.28C392.66 169.28 366.627 195.316 366.627 227.094C366.627 244.744 374.463 260.767 387.097 271.406L361.877 344.344L357.597 356.75L490.72 356.75L486.406 344.344L461.219 271.406C473.849 260.766 481.686 244.744 481.686 227.094C481.686 195.452 456.216 169.281 424.436 169.281Z" fill="url(#lorc-unlocking-gradient-3)"></path><path d="M424.44 187.97C446.057 187.97 463.002 205.342 463.002 227.094C463.002 241.096 455.945 253.211 445.127 260.094L438.907 264.064L441.315 271.031L464.471 338.064L383.81 338.064L407 271.03L409.406 264.063L403.186 260.093C392.369 253.211 385.313 241.096 385.313 227.093C385.313 205.478 402.82 187.969 424.438 187.969Z" fill="#303030" fillOpacity="1"></path><path d="M54.47 213.375C62.473 213.375 68.783 219.655 68.783 227.655C68.783 235.658 62.473 241.937 54.473 241.937C46.47 241.937 40.191 235.657 40.191 227.657C40.191 219.654 46.471 213.375 54.471 213.375Z" className="selected" fill="#4a4a4a" fillOpacity="1"></path></g></g></svg>